<svg xmlns="http://www.w3.org/2000/svg" width="1024" height="1024" viewBox="0 0 1024 1024">
  <defs>
    <linearGradient id="bgGrad" x1="0" y1="0" x2="1" y2="1">
      <stop offset="0" stop-color="#070A12"/>
      <stop offset="1" stop-color="#0B1330"/>
    </linearGradient>

    <linearGradient id="ringGrad" x1="0" y1="1" x2="1" y2="0">
      <stop offset="0" stop-color="#22D3EE"/>
      <stop offset="0.5" stop-color="#A78BFA"/>
      <stop offset="1" stop-color="#F472B6"/>
    </linearGradient>

    <linearGradient id="textGrad" x1="0" y1="0" x2="1" y2="1">
      <stop offset="0" stop-color="#E2E8F0"/>
      <stop offset="0.6" stop-color="#C7D2FE"/>
      <stop offset="1" stop-color="#FCE7F3"/>
    </linearGradient>

    <filter id="softGlow" x="-30%" y="-30%" width="160%" height="160%">
      <feGaussianBlur stdDeviation="14" result="blur"/>
      <feColorMatrix in="blur" type="matrix"
        values="1 0 0 0 0
                0 1 0 0 0
                0 0 1 0 0
                0 0 0 0.55 0" result="glow"/>
      <feMerge>
        <feMergeNode in="glow"/>
        <feMergeNode in="SourceGraphic"/>
      </feMerge>
    </filter>

    <filter id="innerShadow" x="-20%" y="-20%" width="140%" height="140%">
      <feOffset dx="0" dy="10" result="off"/>
      <feGaussianBlur in="off" stdDeviation="18" result="blur"/>
      <feComposite in="blur" in2="SourceAlpha" operator="out" result="shadow"/>
      <feColorMatrix in="shadow" type="matrix"
        values="0 0 0 0 0
                0 0 0 0 0
                0 0 0 0 0
                0 0 0 0.45 0"/>
      <feMerge>
        <feMergeNode/>
        <feMergeNode in="SourceGraphic"/>
      </feMerge>
    </filter>
  </defs>

  <!-- Background -->
  <rect x="64" y="64" width="896" height="896" rx="220" fill="url(#bgGrad)" filter="url(#innerShadow)"/>

  <!-- Neon ring -->
  <g filter="url(#softGlow)">
    <circle cx="512" cy="512" r="312" fill="none" stroke="url(#ringGrad)" stroke-width="44" opacity="0.95"/>
    <circle cx="512" cy="512" r="312" fill="none" stroke="#FFFFFF" stroke-width="6" opacity="0.10"/>
  </g>

  <!-- Monogram -->
  <g>
    <!-- subtle plate -->
    <rect x="278" y="330" width="468" height="364" rx="72" fill="#0B1226" opacity="0.55"/>
    <rect x="278" y="330" width="468" height="364" rx="72" fill="none" stroke="#FFFFFF" opacity="0.08" stroke-width="6"/>

    <!-- R -->
    <path fill="url(#textGrad)"
      d="M 382 702
         L 382 322
         L 560 322
         Q 646 322 700 372
         Q 754 422 754 504
         Q 754 572 718 617
         Q 682 662 616 682
         L 760 702
         L 760 750
         L 604 750
         L 472 730
         L 472 702
         Q 522 694 560 676
         Q 600 656 620 626
         Q 640 596 640 540
         Q 640 468 602 438
         Q 564 406 494 406
         L 472 406
         L 472 702
         Z

         M 472 364
         L 472 364
         L 472 364
         L 472 364
         L 472 364
         L 494 364
         Q 548 364 578 385
         Q 608 406 608 470
         Q 608 524 580 548
         Q 552 572 496 572
         L 472 572
         Z" />

    <!-- Tiny accent dot (optional “status light”) -->
    <circle cx="714" cy="362" r="12" fill="#22D3EE" opacity="0.9" filter="url(#softGlow)"/>
  </g>
</svg>
